<?xml version="1.0" standalone="no"?>
<!DOCTYPE svg PUBLIC "-//W3C//DTD SVG 20010904//EN"
 "http://www.w3.org/TR/2001/REC-SVG-20010904/DTD/svg10.dtd">
<svg version="1.0" xmlns="http://www.w3.org/2000/svg"
 width="225.000000pt" height="225.000000pt" viewBox="0 0 225.000000 225.000000"
 preserveAspectRatio="xMidYMid meet">

<g transform="translate(0.000000,225.000000) scale(0.100000,-0.100000)"
fill="#000000" stroke="none">
<path d="M705 2119 c-188 -11 -297 -53 -402 -152 -154 -145 -183 -279 -183
-842 0 -548 26 -677 163 -822 109 -116 222 -160 447 -173 186 -12 604 -12 790
0 225 13 338 57 447 173 137 145 163 274 163 822 0 548 -26 677 -163 822 -109
116 -222 160 -447 173 -169 11 -642 10 -815 -1z m948 -193 c155 -42 231 -120
274 -277 16 -57 18 -117 18 -524 0 -407 -2 -467 -18 -524 -43 -159 -119 -235
-280 -279 -54 -14 -119 -17 -522 -17 -407 0 -467 2 -524 18 -157 43 -235 120
-277 274 -20 74 -31 688 -16 903 17 248 76 348 241 411 81 31 211 38 656 34
317 -3 401 -6 448 -19z"/>
<path d="M1615 1770 c-44 -18 -70 -59 -70 -111 0 -42 5 -53 33 -81 28 -28 39
-33 82 -33 42 0 54 5 80 30 92 92 -6 245 -125 195z"/>
<path d="M1025 1630 c-112 -25 -195 -71 -272 -153 -99 -105 -138 -203 -138
-352 0 -149 39 -247 138 -352 60 -63 123 -106 203 -135 84 -30 254 -30 338 0
152 56 271 178 322 332 26 76 26 234 0 310 -52 154 -172 279 -322 331 -66 23
-207 33 -269 19z m237 -203 c71 -32 133 -94 167 -166 21 -46 26 -70 26 -136 0
-66 -5 -90 -26 -136 -34 -72 -96 -134 -168 -168 -80 -37 -192 -37 -272 0 -149
70 -229 239 -185 391 58 199 273 300 458 215z"/>
</g>
</svg>
